<?xml version="1.0" encoding="utf-8"?>
<!-- Generator: Adobe Illustrator 24.0.2, SVG Export Plug-In . SVG Version: 6.00 Build 0)  -->
<svg version="1.1" id="Layer_1" xmlns="http://www.w3.org/2000/svg" xmlns:xlink="http://www.w3.org/1999/xlink" x="0px" y="0px"
	 viewBox="0 0 316 316" style="enable-background:new 0 0 316 316;" xml:space="preserve">
<style type="text/css">
	.st0{fill:#FFFFFF;}
	.st1{fill:#FF6C6A;}
	.st2{fill:#121212;}
</style>
<g>
	<circle class="st0" cx="238" cy="158" r="44"/>
	<circle class="st0" cx="78" cy="158" r="44"/>
	<path id="frame_3_" class="st1" d="M306,116h-19.7c-11.8-13.5-29-22-48.3-22c-19.2,0-36.4,8.5-48.1,21.8
		c-7.8-7.3-19.3-11.8-31.9-11.8s-24.1,4.5-31.9,11.8C114.4,102.5,97.2,94,78,94c-19.3,0-36.5,8.5-48.3,22H10c-5.5,0-10,4.5-10,10
		s4.5,10,10,10h7.9c-2.5,6.9-3.9,14.3-3.9,22c0,35.3,28.7,64,64,64s64-28.7,64-64c0-8.6-1.7-16.8-4.8-24.3
		c2.8-5.1,10.6-9.7,20.8-9.7s18,4.6,20.8,9.7c-3.1,7.5-4.8,15.7-4.8,24.3c0,35.3,28.7,64,64,64s64-28.7,64-64c0-7.7-1.4-15.1-3.9-22
		h7.9c5.5,0,10-4.5,10-10S311.5,116,306,116z M78,202c-24.3,0-44-19.7-44-44s19.7-44,44-44s44,19.7,44,44S102.3,202,78,202z
		 M238,202c-24.3,0-44-19.7-44-44s19.7-44,44-44s44,19.7,44,44S262.3,202,238,202z"/>
</g>
<g>
	<path class="st2" d="M236,154l20-4c0,0,4,32-16,32c0,0-20,0-20-24c0,0-4.2-30.4,24-24L236,154z"/>
</g>
<g>
	<path class="st2" d="M76,154l20-4c0,0,4,32-16,32c0,0-20,0-20-24c0,0-4.2-30.4,24-24L76,154z"/>
</g>
</svg>
